<svg viewBox="0 0 16 16" xml:space="preserve" xmlns="http://www.w3.org/2000/svg" enable-background="new 0 0 16 16"><path d="M8 0a1 1 0 0 0-1 1v2a1 1 0 0 0 2 0V1a1 1 0 0 0-1-1zm0 12a1 1 0 0 0-1 1v2a1 1 0 1 0 2 0v-2a1 1 0 0 0-1-1zm4.242-6.828 1.414-1.415a.999.999 0 1 0-1.414-1.414l-1.414 1.414a1 1 0 1 0 1.414 1.415zm-8.485 5.656-1.414 1.414a.999.999 0 1 0 1.414 1.414l1.414-1.414a.999.999 0 1 0-1.414-1.414zm0-8.485a.999.999 0 1 0-1.414 1.414l1.414 1.415a1 1 0 0 0 1.414-1.415L3.757 2.343zm8.485 8.485a.999.999 0 1 0-1.414 1.414l1.414 1.414a.999.999 0 1 0 1.414-1.414l-1.414-1.414zM15 7h-2a1 1 0 1 0 0 2h2a1 1 0 1 0 0-2zM4 8a1 1 0 0 0-1-1H1a1 1 0 0 0 0 2h2a1 1 0 0 0 1-1z" fill="#ffffff" class="fill-000000"></path></svg>